# xmcd
#
# Track frame offsets:
#	150
#	64354
#	110285
#	150295
#	186338
#	201794
#	238585
#
# Disc length: 3474 seconds
#
# Revision: 1
# Processed by: cddbd v1.5.2PL0 Copyright (c) Steve Scherf et al.
# Submitted via: audiograbber 1.83.01
#
DISCID=580d9007
DTITLE=Grateful Dead - 73-09-08 Nassau Veterans Memorial Coliseum, Uniondale NY
DYEAR=1900
DGENRE=
TTITLE0=He's Gone
TTITLE1=Truckin'
TTITLE2=Not Fade Away
TTITLE3=Going Down The Road Feeling Bad
TTITLE4=Not Fade Away
TTITLE5=Stella Blue
TTITLE6=One More Saturday Night
EXTD=
EXTT0=
EXTT1=
EXTT2=
EXTT3=
EXTT4=
EXTT5=
EXTT6=
PLAYORDER=
